<?xml version="1.0" encoding="iso-8859-1"?>
<!-- Uploaded to: SVG Repo, www.svgrepo.com, Generator: SVG Repo Mixer Tools -->
<svg height="800px" width="800px" version="1.1" id="Capa_1" xmlns="http://www.w3.org/2000/svg" xmlns:xlink="http://www.w3.org/1999/xlink" 
	 viewBox="0 0 60.629 60.629" xml:space="preserve">
<g>
	<path style="fill:#030104;" d="M36.09,33.159L36.09,33.159c-0.033-0.163-0.072-0.337-0.117-0.536
		c-0.011-0.051-0.026-0.114-0.042-0.179c-0.241-1.017-0.547-2.078-0.761-2.641l-0.499-1.317l-0.438-1.22l-0.001,0.001l-0.018-0.048
		c-0.232-0.646-0.207-2.008,0.057-3.037l0.513-2.005l0.202-0.979c2.449-3.423,2.701-7.731,2.723-8.229
		C37.51,5.71,37.052,2.66,35.824,0.416c-0.17-0.309-0.446-0.464-0.712-0.403c-0.216,0.047-0.456,0.253-0.482,0.691
		c-0.032,0.554-0.016,1.438,0.251,2.517c0.338,1.362,0.314,2.688,0.256,3.689c-0.015,0.246-0.067,1.087-0.122,1.6
		c-0.058,0.528-0.138,0.808-0.209,1.055c-0.108,0.379-0.201,0.706-0.158,1.578c0.057,1.153-0.085,3.371-0.254,4.851
		c-0.035,0.31-0.312,0.731-0.617,0.809c-0.202,0.053-0.593-0.019-1.084-0.119c-0.619-0.127-1.391-0.285-2.378-0.285
		c-1.07,0-1.887,0.178-2.494,0.31c-0.432,0.094-0.799,0.17-0.986,0.121c-0.28-0.071-0.564-0.519-0.6-0.836
		c-0.169-1.474-0.311-3.691-0.254-4.85c0.043-0.866-0.051-1.194-0.162-1.588c-0.07-0.248-0.15-0.528-0.205-1.045
		c-0.056-0.514-0.108-1.354-0.123-1.6c-0.059-0.996-0.084-2.316,0.256-3.689c0.266-1.07,0.283-1.959,0.252-2.516
		c-0.025-0.438-0.266-0.645-0.48-0.692c-0.27-0.061-0.545,0.093-0.715,0.404c-1.228,2.244-1.686,5.297-1.883,12.57
		c0.001,0.046,0.173,4.747,2.805,8.327l0.181,0.879l0.51,1.988c0.265,1.027,0.29,2.39,0.058,3.037l-0.137,0.379
		c-0.119,0.29-0.263,0.682-0.436,1.193l-0.383,1.012c-0.24,0.641-0.588,1.863-0.822,2.902l-0.074,0.259l-0.03,0.168l0.012-0.001
		l-0.048,0.236c-0.233,1.123-0.302,2.964-0.156,4.104l0.027,0.201c0.144,1.128,0.546,2.921,0.897,3.996l0.648,2.001l0.289,1.189
		c0.152,0.634,0.276,1.645,0.276,2.254l0.001,1.111l-0.101,1.165c-0.061,0.685,0.123,1.985,0.419,2.961
		c0.156,0.518,0.315,1.136,0.422,1.654c0.09,0.432,0.129,1.122,0.088,1.507c-0.009,0.086-0.02,0.171-0.033,0.26
		c-0.014,0.107-0.035,0.229-0.058,0.36l-0.009,0.05c-0.068,0.396-0.154,0.891-0.137,1.252c0.033,0.685,0.191,1.498,0.423,2.173
		c0.288,0.847,0.657,1.024,0.917,1.024l0.027-0.001c0.249-0.005,0.592-0.162,0.81-0.883c0.3-0.991,0.39-2.253,0.203-2.874
		c-0.161-0.535-0.291-1.38-0.291-1.883c0-0.51,0.179-1.728,0.398-2.714c0.23-1.034,0.347-2.492,0.26-3.251l-0.156-1.342
		l-0.203-1.015c-0.107-0.537-0.149-1.634-0.096-2.445c0.039-0.582,0.144-1.471,0.266-2.266c0.027-0.171,0.064-0.382,0.106-0.623
		c0.06-0.348,0.123-0.714,0.158-0.983c0.109-0.847,0.182-1.842,0.182-2.534c0-0.649,0.125-1.138,0.215-1.356
		c0.088,0.22,0.211,0.709,0.211,1.356c0,0.688,0.072,1.684,0.182,2.533c0.033,0.264,0.095,0.615,0.153,0.955l0.024,0.139
		c0.032,0.188,0.063,0.366,0.086,0.515c0.122,0.786,0.226,1.675,0.265,2.265c0.055,0.81,0.013,1.907-0.096,2.445l-0.207,1.04
		l-0.152,1.317c-0.086,0.761,0.031,2.219,0.26,3.25c0.219,0.985,0.397,2.202,0.397,2.714c0,0.502-0.13,1.348-0.29,1.883
		c-0.186,0.622-0.097,1.884,0.203,2.874c0.219,0.721,0.561,0.878,0.819,0.883c0.266,0,0.645-0.178,0.935-1.022
		c0.23-0.671,0.389-1.482,0.423-2.172c0.017-0.358-0.064-0.83-0.138-1.251l-0.019-0.112c-0.018-0.108-0.036-0.21-0.048-0.3
		l-0.005-0.035c-0.01-0.077-0.02-0.152-0.028-0.225c-0.041-0.391-0.001-1.081,0.088-1.508c0.103-0.498,0.261-1.116,0.423-1.654
		c0.291-0.957,0.48-2.285,0.419-2.961l-0.101-1.137v-1.14c0-0.609,0.125-1.621,0.278-2.254l0.28-1.166l0.658-2.023
		c0.349-1.074,0.751-2.867,0.896-3.997l0.025-0.202c0.146-1.137,0.076-2.978-0.155-4.103L36.09,33.159z M25.881,20.378
		c-2.152-3.329-2.305-7.357-2.306-7.392C23.765,6,24.214,2.899,25.346,0.789c0.025,0.515,0.002,1.313-0.237,2.274
		c-0.36,1.464-0.335,2.845-0.273,3.886c0.03,0.507,0.078,1.202,0.125,1.634c0.063,0.578,0.151,0.889,0.229,1.163
		c0.101,0.352,0.173,0.605,0.135,1.367c-0.058,1.194,0.086,3.458,0.259,4.955c0.062,0.556,0.497,1.247,1.09,1.396
		c0.328,0.083,0.757,0.001,1.292-0.117c0.6-0.131,1.346-0.293,2.349-0.293c0.926,0,1.661,0.151,2.253,0.273
		c0.567,0.115,1.032,0.195,1.374,0.11c0.602-0.155,1.041-0.832,1.104-1.37c0.172-1.511,0.315-3.777,0.257-4.955
		c-0.037-0.761,0.034-1.015,0.134-1.366c0.079-0.274,0.169-0.582,0.229-1.164c0.049-0.446,0.099-1.158,0.127-1.634
		c0.06-1.048,0.084-2.438-0.275-3.884c-0.239-0.967-0.262-1.762-0.236-2.273c1.132,2.111,1.58,5.208,1.771,12.181
		c-0.001,0.039-0.136,3.994-2.257,7.333c-0.092-0.217-0.215-0.406-0.358-0.548l-0.506-0.497c-0.269-0.267-0.683-0.426-1.107-0.426
		c-0.207,0-0.405,0.039-0.573,0.113l-1.305,0.568c-0.292,0.126-0.902,0.107-1.185-0.037L28.828,19
		c-0.482-0.247-1.289-0.169-1.712,0.16l-0.78,0.602C26.147,19.908,25.99,20.122,25.881,20.378z M26.529,21.878l-0.139-0.637
		c-0.07-0.315,0.092-0.762,0.346-0.958l0.781-0.604c0.229-0.177,0.755-0.225,1.012-0.094l0.934,0.477
		c0.453,0.232,1.277,0.258,1.744,0.054l1.306-0.568c0.266-0.114,0.754-0.024,0.959,0.179l0.505,0.498
		c0.238,0.235,0.384,0.728,0.312,1.056l-0.172,0.765c-0.053,0.242-0.3,0.396-0.567,0.336c-1.022-0.229-2.153-0.346-3.361-0.346
		c-1.274,0-2.365,0.128-3.056,0.234C26.85,22.31,26.586,22.132,26.529,21.878z M33.599,27.442l0.028,0.078
		c-0.737,0.269-1.652,0.405-2.721,0.405c-1.634,0-3.216-0.31-3.833-0.446l0.014-0.038c0.275-0.765,0.259-2.268-0.037-3.422
		l-0.291-1.131c0.161,0.047,0.309,0.052,0.471,0.029c0.673-0.104,1.732-0.228,2.957-0.228c1.161,0,2.243,0.111,3.217,0.331
		c0.16,0.036,0.321,0.041,0.488,0.003l-0.256,0.996C33.34,25.175,33.324,26.678,33.599,27.442z M29.475,37.817
		c0,0.661-0.068,1.622-0.176,2.449c-0.031,0.245-0.088,0.572-0.143,0.891l-0.029,0.174c-0.034,0.193-0.066,0.376-0.089,0.528
		c-0.124,0.807-0.231,1.717-0.271,2.318c-0.058,0.859-0.009,2.035,0.107,2.62l0.198,0.986l0.151,1.317
		c0.081,0.694-0.03,2.055-0.247,3.031c-0.229,1.026-0.414,2.309-0.414,2.857c0,0.56,0.142,1.489,0.318,2.071
		c0.149,0.498,0.057,1.641-0.203,2.496c-0.08,0.268-0.16,0.37-0.195,0.405c-0.049-0.039-0.176-0.17-0.312-0.569
		c-0.209-0.614-0.357-1.377-0.387-1.991c-0.013-0.283,0.062-0.72,0.128-1.106c0.028-0.158,0.054-0.305,0.071-0.432
		c0.012-0.094,0.023-0.189,0.035-0.28c0.048-0.452,0.004-1.22-0.1-1.711c-0.109-0.533-0.273-1.173-0.436-1.71
		c-0.27-0.893-0.446-2.111-0.393-2.715l0.103-1.193v-1.14c0-0.646-0.133-1.727-0.296-2.407L26.6,43.491l-0.656-2.024
		c-0.341-1.047-0.73-2.786-0.87-3.878l-0.026-0.201c-0.138-1.08-0.072-2.824,0.148-3.888l0.042-0.209
		c0.013-0.061,0.026-0.123,0.04-0.187c3.53-0.078,4.446,1.863,4.681,2.782C29.566,36.249,29.475,37.413,29.475,37.817z
		 M30.287,34.916c-0.521-1.031-1.787-2.473-4.781-2.473h-0.053c0.168-0.577,0.64-2.171,1.064-3.428l0.333-0.913
		c0.623,0.14,2.319,0.479,4.057,0.479c1.155,0,2.143-0.146,2.94-0.434c0.303,0.873,1.09,3.168,1.39,4.238
		C34.11,32.471,31.181,32.89,30.287,34.916z M35.638,37.39l-0.027,0.202c-0.14,1.092-0.529,2.831-0.869,3.877l-0.665,2.049
		l-0.286,1.19c-0.164,0.678-0.297,1.758-0.297,2.407l0.002,1.166l0.102,1.166c0.053,0.609-0.123,1.827-0.392,2.715
		c-0.161,0.528-0.324,1.167-0.438,1.71c-0.102,0.495-0.146,1.262-0.098,1.71c0.01,0.093,0.021,0.187,0.035,0.28
		c0.015,0.112,0.037,0.242,0.061,0.38l0.009,0.054c0.063,0.363,0.143,0.816,0.129,1.109c-0.03,0.62-0.18,1.383-0.388,1.989
		c-0.139,0.406-0.263,0.535-0.309,0.571c-0.034-0.032-0.116-0.133-0.198-0.407c-0.26-0.857-0.352-2.001-0.203-2.496
		c0.174-0.581,0.316-1.511,0.316-2.071c0-0.551-0.185-1.832-0.412-2.857c-0.217-0.974-0.328-2.334-0.247-3.031l0.148-1.29
		l0.202-1.014c0.116-0.583,0.164-1.758,0.107-2.62c-0.043-0.618-0.149-1.528-0.273-2.319c-0.027-0.177-0.064-0.398-0.103-0.626
		c-0.062-0.348-0.123-0.705-0.157-0.966c-0.106-0.83-0.175-1.791-0.175-2.449c0-0.42-0.097-1.622-0.51-1.952
		c0.29-2.362,3.746-2.766,4.69-2.831c0.019,0.087,0.037,0.173,0.055,0.257l0.044,0.209C35.709,34.567,35.775,36.313,35.638,37.39z
		 M30.993,27.19c0.06,0.108,0.02,0.245-0.088,0.307c-0.204,0.114-0.429,0.172-0.665,0.172c-0.398,0-0.693-0.166-0.705-0.173
		c-0.052-0.028-0.089-0.077-0.107-0.135c-0.016-0.059-0.009-0.119,0.021-0.173c0.055-0.102,0.2-0.149,0.307-0.088
		c0.004,0.002,0.214,0.114,0.487,0.114c0.159,0,0.307-0.038,0.441-0.113C30.779,27.044,30.933,27.082,30.993,27.19z M30.344,15.564
		c1.684,0,3.055-1.674,3.055-3.731s-1.37-3.73-3.055-3.73c-1.685,0-3.055,1.672-3.055,3.73S28.659,15.564,30.344,15.564z
		 M30.344,8.809c1.296,0,2.35,1.356,2.35,3.024s-1.054,3.025-2.35,3.025s-2.35-1.357-2.35-3.025
		C27.994,10.165,29.048,8.809,30.344,8.809z"/>
</g>
</svg>